<?xml version="1.0" encoding="utf-8"?>
<!-- Generator: Adobe Illustrator 19.2.1, SVG Export Plug-In . SVG Version: 6.00 Build 0)  -->
<svg version="1.1" id="layer" xmlns="http://www.w3.org/2000/svg" xmlns:xlink="http://www.w3.org/1999/xlink" x="0px" y="0px"
	 viewBox="0 0 652 652" style="enable-background:new 0 0 652 652;" xml:space="preserve">
<style type="text/css">
	.st0{fill:#FFCC06;}
	.st1{fill:#152936;}
</style>
<path class="st0" d="M21.7,303.5c-1.4,0.3-1.5,2,0,2c2.2-0.1,12.6-0.4,21.9,0.5c10.8,1,21.1,3.8,29.2,6.5c8,2.7,25.8,12.8,25.8,12.8
	s-23,13-30.8,32.4c-0.4,1,0.1,1.4,1.5,0.6c29.4-17.5,49.9-28.2,85.7-35.2c2.3-0.5,2-0.7,0.1-1.2c-2-0.5-8.8-1.7-26.5-8.3
	c-17.7-6.6-34.7-12.7-54.6-14.2c-2.9-0.2-5.9-0.3-9-0.3C44.3,299,22.3,303.4,21.7,303.5"/>
<path class="st0" d="M164.1,286.7c-5.6,6.7-17.3,15.2-28.5,19.6c-1.5,0.6-1.1,1.5-0.5,1.9c0.2,0.1,1,0.4,2.1,0.8l14.7,4.7
	c1.2,0.4,1.2,0.3,1.7-0.2c7.8-7.8,10.8-19.1,11.3-26.6c0,0,0.1-0.9-0.1-0.9C164.7,286.1,164.5,286.3,164.1,286.7"/>
<path class="st1" d="M429.5,358.7h-9.4c-0.6,0-1.1-0.3-1.4-0.8l-28.3-48.6V357c0,0.9-0.8,1.7-1.7,1.7h-9.4c-0.9,0-1.7-0.8-1.7-1.7
	v-69.1c0-0.9,0.8-1.7,1.7-1.7h9.4c0.6,0,1.1,0.3,1.4,0.8l28.4,46.6v-45.7c0-0.9,0.8-1.7,1.7-1.7h9.3c0.9,0,1.7,0.8,1.7,1.7V357
	C431.3,357.9,430.5,358.7,429.5,358.7"/>
<path class="st1" d="M528.9,358.7h-9.4c-0.9,0-1.7-0.8-1.7-1.7v-69.1c0-0.9,0.8-1.7,1.7-1.7h9.4c0.9,0,1.7,0.8,1.7,1.7V357
	C530.6,357.9,529.9,358.7,528.9,358.7"/>
<path class="st1" d="M475.3,359.6c-8.9,0-16.1-3.2-21.5-9.4c-5.3-6.2-8-16.5-8-26.6V321c0-6.7,1.2-14.6,3.7-19.7
	c2.5-5.2,6.1-9.2,10.7-12c4.6-2.8,9.9-4.2,15.9-4.2c8,0,14.5,2.2,19.3,6.6c3.9,3.5,6.6,8.3,7.8,14.1c0.1,0.5,0,1-0.3,1.4
	c-0.3,0.4-0.8,0.6-1.3,0.6h-9.6c-0.8,0-1.5-0.5-1.7-1.3c-0.9-3.2-2.2-5.7-4-7.3c-2.4-2.2-5.8-3.3-10.3-3.3c-5.5,0-9.7,1.9-12.7,5.8
	c-3.1,4-4.7,11.8-4.7,19.3v2.7c0,7.1,1.5,14.8,4.5,18.9c2.9,4,6.9,5.9,12.1,5.9c4.8,0,8.4-1,10.9-3c1.9-1.5,3.3-4.1,4.2-7.5
	c0.2-0.8,0.9-1.3,1.6-1.3h9.6c0.5,0,1,0.2,1.3,0.7c0.3,0.4,0.4,0.9,0.3,1.4c-1.4,6-4.1,10.8-8.3,14.3
	C490.1,357.5,483.4,359.6,475.3,359.6"/>
<path class="st1" d="M231,358.7h-35.4c-0.9,0-1.7-0.8-1.7-1.7v-69.1c0-0.9,0.8-1.7,1.7-1.7H231c0.9,0,1.7,0.8,1.7,1.7v7.5
	c0,0.9-0.8,1.7-1.7,1.7h-24.3v18.8H231c0.9,0,1.7,0.8,1.7,1.7v7.5c0,0.9-0.8,1.7-1.7,1.7h-24.3v21.1H231c0.9,0,1.7,0.8,1.7,1.7v7.5
	C232.7,357.9,232,358.7,231,358.7"/>
<path class="st1" d="M357.2,358.7h-35.4c-0.9,0-1.7-0.8-1.7-1.7v-69.1c0-0.9,0.8-1.7,1.7-1.7h35.4c0.9,0,1.7,0.8,1.7,1.7v7.5
	c0,0.9-0.8,1.7-1.7,1.7h-24.3v18.8h24.3c0.9,0,1.7,0.8,1.7,1.7v7.5c0,0.9-0.8,1.7-1.7,1.7h-24.3v21.1h24.3c0.9,0,1.7,0.8,1.7,1.7
	v7.5C359,357.9,358.2,358.7,357.2,358.7"/>
<path class="st1" d="M563.5,340l-1.7,0.8l0.5-1.3l2.7-7.5l10.1-28l10.8,29.8C577.6,335.4,571.1,337.1,563.5,340 M607,356.3
	l-26.4-69.1c-0.2-0.7-0.9-1.1-1.5-1.1h-8c-0.7,0-1.3,0.4-1.6,1.1l-26.3,69.1c-0.2,0.5-0.1,1.1,0.2,1.6c0.3,0.5,0.8,0.8,1.4,0.8h9.4
	c1,0,1.8,0,1.8,0c10.9-12,27.6-17.9,32-19.3l6.6,18.1c0.2,0.7,0.9,1.1,1.6,1.1h9.3c0.6,0,1.1-0.3,1.4-0.8
	C607.2,357.5,607.2,356.9,607,356.3"/>
<path class="st1" d="M276.6,359.6c-6,0-11.4-1.4-16.1-4.2c-4.7-2.8-8.4-6.8-11-12c-2.5-5.1-3.9-11-3.9-17.7v-6
	c0-10.8,2.6-19.3,7.8-25.3c5.2-6.1,12.7-9.2,22.1-9.2c7.7,0,14,2,18.8,5.9c3.4,2.8,5.9,6.6,7.5,11.1c0.2,0.5,0.1,1.1-0.2,1.5
	c-0.3,0.5-0.8,0.7-1.4,0.7h-9.7c-0.7,0-1.2-0.4-1.5-1c-2.4-5-6.7-7.5-13.4-7.5c-5.7,0-9.9,1.9-12.8,5.8c-3,4-4.5,9.9-4.5,17.6v5.6
	c0,7.3,1.7,13.2,5,17.4c3.3,4.2,7.6,6.2,13.3,6.2c3.3,0,6.2-0.4,8.6-1.1c2.1-0.6,3.8-1.6,5.2-2.9v-18h-11.4c-0.9,0-1.7-0.8-1.7-1.7
	v-7.5c0-0.9,0.8-1.7,1.7-1.7h24.1l0,32c0,0.4-0.1,0.7-0.3,1c-2.6,3.6-6.2,6.3-10.7,8.1C287.6,358.8,282.4,359.6,276.6,359.6"/>
<path class="st1" d="M618.7,295.6c-0.5,0.9-1.1,1.5-2,2c-0.9,0.5-1.8,0.8-2.8,0.8c-1,0-1.9-0.3-2.8-0.7c-0.8-0.5-1.5-1.2-2-2
	c-0.5-0.9-0.7-1.8-0.7-2.8c0-1,0.2-1.9,0.7-2.8c0.5-0.9,1.2-1.5,2-2c0.9-0.5,1.8-0.7,2.8-0.7c1,0,2,0.3,2.8,0.8c0.9,0.5,1.5,1.2,2,2
	c0.5,0.8,0.7,1.8,0.7,2.8C619.5,293.8,619.2,294.7,618.7,295.6 M619.7,289.5c-0.6-1-1.4-1.8-2.4-2.4c-1-0.6-2.2-0.9-3.4-0.9
	c-1.2,0-2.3,0.3-3.4,0.9c-1.1,0.6-1.9,1.4-2.5,2.4c-0.6,1-0.9,2.1-0.9,3.4s0.3,2.3,0.9,3.4c0.6,1,1.4,1.8,2.5,2.4
	c1,0.6,2.2,0.9,3.4,0.9c1.2,0,2.4-0.3,3.4-0.9c1-0.6,1.9-1.4,2.4-2.4c0.6-1,0.9-2.1,0.9-3.3C620.6,291.6,620.3,290.5,619.7,289.5"/>
<path class="st1" d="M614.8,292.1c-0.2,0.1-0.5,0.2-0.8,0.2h-1v-1.8h1c0.4,0,0.8,0.1,0.9,0.2c0.2,0.1,0.3,0.4,0.3,0.7
	C615.1,291.8,615,292,614.8,292.1 M616.2,295.2c0-0.2,0-0.4,0-0.8c0-0.4-0.1-0.7-0.2-1c-0.1-0.3-0.3-0.5-0.6-0.6
	c0.6-0.3,0.9-0.7,0.9-1.3c0-0.6-0.2-1.1-0.6-1.4c-0.4-0.3-1-0.5-1.7-0.5h-2v6.1h1.1v-2.4h1.1c0.4,0,0.6,0.1,0.8,0.2
	c0.2,0.2,0.2,0.4,0.2,0.8c0,0.8,0,1.2,0.1,1.4h1.1v-0.1C616.3,295.5,616.2,295.4,616.2,295.2"/>
</svg>
